<?xml version="1.0" encoding="utf-8"?><svg xmlns="http://www.w3.org/2000/svg" xmlns:xlink="http://www.w3.org/1999/xlink"><symbol viewBox="0 0 157 92" id="logo" xmlns="http://www.w3.org/2000/svg"><path d="M0 .575h18.893v7.182H7.557V34.1H0zM24.09 34.1V.575h7.557v20.833L46.288.575H52.9V34.1h-7.557V13.266L30.701 34.1zM77.697 7.757H66.125V34.1h-7.557V.575h26.686V34.1h-7.557zm32.353 0H98.478V34.1h-7.557V.575h26.687V34.1h-7.557zm29.378-7.76C149.49-.002 157 6.658 157 17.338c0 10.153-7.51 17.338-17.57 17.338s-17.57-6.658-17.57-17.338c0-9.723 7.036-17.34 17.57-17.34zm0 27.493c6.282 0 9.541-4.502 9.541-10.153 0-6.131-4.203-10.153-9.54-10.153-5.48 0-9.541 4.022-9.541 10.153 0 5.747 4.25 10.153 9.54 10.153zM19.13 45.354H7.557v26.342H0V38.17h26.687v33.527H19.13zm28.433-7.76c10.06 0 17.57 6.659 17.57 17.34 0 10.153-7.51 17.337-17.57 17.337s-17.57-6.657-17.57-17.337c0-9.724 7.037-17.34 17.57-17.34zm0 27.493c6.282 0 9.54-4.503 9.54-10.153 0-6.131-4.203-10.154-9.54-10.154-5.48 0-9.541 4.023-9.541 10.154 0 5.748 4.25 10.153 9.54 10.153zm52.852-26.918h6.754l13.745 33.527h-8.077l-2.74-7.04H97.015l-2.74 7.04H86.67zm-.567 19.303h7.415l-3.684-9.483zM122.33 38.17h7.604l10.202 14.13 9.636-14.13h7.132v33.527h-7.557v-21.36l-9.21 13.075h-1.087l-9.163-12.933v21.218h-7.557zm-29.803 0v7.185c-1.919 0-3.598.521-5.203 1.505a.251.251 0 01-.387-.194c-.06-.907-.49-2.859-3.03-2.5a2.466 2.466 0 00-2.101 2.19c-.223 2.336 1.522 2.86 2.37 2.973.194.026.28.244.174.411-.666 1.053-1.23 3.607-1.67 6.313 2.838 2.116 5.328 3.074 6.955 3.508.365.096.287.637-.09.634-1.549-.008-3.955-.39-7.188-1.975-.47 3.412-.73 6.493-.73 6.493a71.696 71.696 0 00-.315 10.928l.656 13.8c.067 1.393-1.029 2.558-2.404 2.558h-1.467c-1.375 0-2.471-1.166-2.404-2.559l.654-13.69a71.635 71.635 0 00-.307-10.882s-.262-3.137-.763-6.647c-3.232 1.585-5.637 1.966-7.185 1.974-.377.003-.455-.538-.09-.634 1.624-.433 4.109-1.389 6.941-3.498-.429-2.55-.979-5.004-1.641-6.336a.284.284 0 01.197-.406 2.626 2.626 0 002.014-3.077c-.257-1.39-1.444-2.352-2.936-2.101-1.773.298-2.121 1.66-2.183 2.348a.242.242 0 01-.367.185 9.735 9.735 0 00-4.894-1.321V38.17z"/></symbol></svg>